<svg width="22" height="22" viewBox="0 0 22 22" fill="none" xmlns="http://www.w3.org/2000/svg">
<path d="M10.5 5.15625C13.5 5.15625 15.8906 7.59375 15.8906 10.5469C15.8906 13.5469 13.4531 15.9375 10.5 15.9375C7.5 15.9375 5.10938 13.5 5.10938 10.5469C5.10938 7.54688 7.54688 5.15625 10.5 5.15625ZM10.5 7.03125C8.53125 7.07812 6.98438 8.625 6.98438 10.5469C7.03125 12.5156 8.57812 14.0625 10.5 14.0625C12.4688 14.0156 14.0156 12.4688 14.0156 10.5469C13.9688 8.57812 12.4219 7.03125 10.5 7.03125ZM14.8594 4.92188C14.8594 5.625 15.4219 6.1875 16.125 6.1875C16.8281 6.1875 17.3906 5.625 17.3906 4.92188C17.3906 4.21875 16.8281 3.70312 16.125 3.70312C15.4219 3.70312 14.8594 4.21875 14.8594 4.92188ZM20.9531 6.23438C21.0469 7.96875 21.0469 13.125 20.9531 14.8594C20.8594 16.5469 20.4844 18.0469 19.2656 19.2656C18 20.5312 16.5469 20.9062 14.8594 20.9531C13.125 21.0938 7.92188 21.0938 6.1875 20.9531C4.5 20.9062 3 20.4844 1.78125 19.2656C0.5625 18.0469 0.140625 16.5469 0.09375 14.8594C0 13.125 0 7.92188 0.09375 6.1875C0.1875 4.54688 0.5625 3.04688 1.78125 1.82812C3 0.5625 4.5 0.1875 6.1875 0.09375C7.92188 0 13.125 0 14.8594 0.09375C16.5469 0.1875 18 0.5625 19.2656 1.82812C20.4844 3.04688 20.8594 4.54688 20.9531 6.23438ZM18.7031 16.7344C19.2656 15.375 19.125 12.0938 19.125 10.5469C19.125 9 19.2656 5.71875 18.7031 4.35938C18.3281 3.42188 17.625 2.71875 16.6875 2.34375C15.3281 1.82812 12.0469 1.92188 10.5 1.92188C9 1.92188 5.71875 1.82812 4.3125 2.34375C3.42188 2.71875 2.67188 3.42188 2.34375 4.35938C1.78125 5.71875 1.92188 9 1.92188 10.5469C1.92188 12.0938 1.78125 15.375 2.34375 16.7344C2.71875 17.6719 3.42188 18.375 4.3125 18.75C5.71875 19.2656 9 19.1719 10.5 19.1719C12.0469 19.1719 15.3281 19.2656 16.6875 18.75C17.625 18.375 18.3281 17.6719 18.7031 16.7344Z" fill="white"/>
</svg>
