<svg width="23" height="23" viewBox="0 0 23 23" fill="none" xmlns="http://www.w3.org/2000/svg">
<path d="M21.9375 0.375C22.3125 0.65625 22.5 1.07812 22.5 1.54688V15.7969C22.5 17.8594 20.4844 19.5469 18 19.5469C15.5156 19.5469 13.5 17.8594 13.5 15.7969C13.5 13.7344 15.5156 12.0469 18 12.0469C18.5156 12.0469 19.0312 12.1406 19.5 12.2812V6.79688L9 9.14062V18.7969C9 20.8594 6.98438 22.5469 4.5 22.5469C2.01562 22.5469 0 20.8594 0 18.7969C0 16.7344 2.01562 15.0469 4.5 15.0469C5.01562 15.0469 5.53125 15.1406 6 15.2812V4.54688C6 3.84375 6.46875 3.23438 7.17188 3.09375L20.6719 0.09375C21.1406 0 21.6094 0.09375 21.9375 0.375Z" fill="white"/>
</svg>
