<svg width="31" height="14" viewBox="0 0 31 14" fill="none" xmlns="http://www.w3.org/2000/svg">
<path d="M30.1406 9.46875C30.0938 10.5469 29.625 11.5312 28.8281 12.2812C28.0312 13.0312 27 13.4531 25.9219 13.4062H15.7031C15.4688 13.4062 15.2344 13.3125 15.0938 13.1719C14.9062 12.9844 14.8125 12.7969 14.8125 12.5625V1.54688C14.8125 1.35938 14.8594 1.17188 15 1.03125C15.0938 0.84375 15.2344 0.75 15.4219 0.65625C15.4219 0.65625 16.3594 0 18.3281 0C19.5469 0 20.7188 0.328125 21.75 0.9375C22.5469 1.45312 23.25 2.0625 23.8125 2.8125C24.375 3.60938 24.75 4.45312 24.9375 5.39062C25.3125 5.29688 25.6875 5.25 26.0625 5.25C26.5781 5.25 27.1406 5.34375 27.6562 5.53125C28.1719 5.76562 28.5938 6.09375 28.9688 6.46875C29.3906 6.84375 29.6719 7.3125 29.8594 7.82812C30.0938 8.34375 30.1875 8.90625 30.1406 9.46875ZM13.5469 2.25C13.5469 2.20312 13.5469 2.15625 13.5469 2.10938C13.5469 2.0625 13.5 2.01562 13.4531 2.01562C13.4531 1.96875 13.4062 1.92188 13.3594 1.92188C13.2656 1.875 13.1719 1.875 13.0781 1.92188C13.0312 1.92188 13.0312 1.96875 12.9844 2.01562C12.9375 2.01562 12.9375 2.0625 12.8906 2.10938C12.8906 2.15625 12.8906 2.20312 12.8906 2.25C12.6094 5.95312 12.375 9.42188 12.8906 13.125C12.8906 13.1719 12.9375 13.2656 12.9844 13.3125C13.125 13.4531 13.3125 13.4531 13.4531 13.3125C13.5 13.2656 13.5469 13.1719 13.5469 13.125C14.0625 9.375 13.875 6 13.5469 2.25ZM11.4844 3.51562C11.4844 3.46875 11.4375 3.375 11.3906 3.32812C11.3438 3.28125 11.25 3.23438 11.1562 3.23438C11.0625 3.23438 10.9688 3.28125 10.9219 3.32812C10.8281 3.375 10.8281 3.46875 10.7812 3.51562C10.4531 6.70312 10.4531 9.9375 10.7812 13.125C10.8281 13.2188 10.875 13.2656 10.9219 13.3125C10.9688 13.3594 11.0625 13.4062 11.1562 13.4062C11.2031 13.4062 11.2969 13.4062 11.3906 13.3125C11.4375 13.2656 11.4844 13.2188 11.4844 13.125C11.9062 9.9375 11.9062 6.70312 11.4844 3.51562ZM9.42188 3.23438C9.42188 3.14062 9.375 3.04688 9.32812 3C9.23438 2.95312 9.1875 2.90625 9.09375 2.90625C9 2.90625 8.90625 2.95312 8.85938 3C8.8125 3.04688 8.76562 3.14062 8.76562 3.23438C8.4375 6.60938 8.29688 9.75 8.76562 13.125C8.76562 13.2188 8.76562 13.2656 8.85938 13.3594C8.90625 13.4062 9 13.4531 9.09375 13.4531C9.1875 13.4531 9.28125 13.4062 9.32812 13.3594C9.375 13.2656 9.42188 13.2188 9.42188 13.125C9.89062 9.70312 9.75 6.60938 9.42188 3.23438ZM7.35938 4.17188C7.35938 4.07812 7.3125 3.98438 7.26562 3.9375C7.21875 3.89062 7.125 3.84375 7.03125 3.84375C6.9375 3.84375 6.84375 3.89062 6.75 3.9375C6.70312 3.98438 6.65625 4.07812 6.65625 4.17188C6.28125 7.125 6.28125 10.1719 6.65625 13.125C6.70312 13.2188 6.70312 13.2656 6.79688 13.3594C6.84375 13.4062 6.9375 13.4062 7.03125 13.4062C7.07812 13.4062 7.17188 13.4062 7.21875 13.3594C7.3125 13.2656 7.35938 13.2188 7.35938 13.125C7.78125 10.1719 7.78125 7.125 7.35938 4.17188ZM5.25 6.42188C5.25 6.32812 5.25 6.23438 5.15625 6.1875C5.10938 6.09375 5.01562 6.09375 4.92188 6.09375C4.82812 6.09375 4.73438 6.09375 4.6875 6.1875C4.64062 6.23438 4.59375 6.32812 4.59375 6.42188C4.125 8.71875 4.35938 10.8281 4.59375 13.125C4.64062 13.2188 4.6875 13.2656 4.73438 13.3594C4.78125 13.4062 4.875 13.4062 4.92188 13.4062C5.01562 13.4062 5.0625 13.4062 5.15625 13.3594C5.20312 13.2656 5.25 13.2188 5.25 13.125C5.57812 10.7812 5.8125 8.71875 5.25 6.42188ZM3.1875 6.04688C3.1875 5.95312 3.14062 5.90625 3.09375 5.8125C3.04688 5.76562 2.95312 5.76562 2.85938 5.76562C2.76562 5.76562 2.67188 5.76562 2.625 5.8125C2.57812 5.90625 2.53125 5.95312 2.53125 6.04688C2.0625 8.39062 2.20312 10.5 2.53125 12.8438C2.57812 13.1719 3.14062 13.1719 3.1875 12.8438C3.51562 10.4531 3.70312 8.4375 3.23438 6.04688H3.1875ZM1.125 7.21875C1.125 7.125 1.07812 7.03125 0.984375 6.98438C0.9375 6.9375 0.84375 6.89062 0.75 6.89062C0.703125 6.89062 0.609375 6.9375 0.515625 6.98438C0.46875 7.03125 0.421875 7.125 0.421875 7.21875C0 8.8125 0.140625 10.0781 0.46875 11.6719C0.46875 11.7656 0.515625 11.8594 0.5625 11.9062C0.609375 11.9531 0.703125 11.9531 0.796875 11.9531C0.84375 11.9531 0.9375 11.9531 0.984375 11.9062C1.07812 11.8125 1.07812 11.7656 1.125 11.6719C1.45312 10.0781 1.64062 8.76562 1.125 7.21875Z" fill="white" fill-opacity="0.8"/>
</svg>
