<svg width="24" height="24" viewBox="0 0 24 24" fill="none" xmlns="http://www.w3.org/2000/svg">
<path d="M11.625 0C18.0469 0 23.25 5.20312 23.25 11.625C23.25 18.0469 18.0469 23.25 11.625 23.25C5.20312 23.25 0 18.0469 0 11.625C0 5.20312 5.20312 0 11.625 0ZM16.3594 17.1094C16.7344 17.1094 17.0625 16.8281 17.0625 16.4062C17.0625 15.9375 16.875 15.7969 16.5938 15.6094C13.2656 13.5938 9.32812 13.5469 5.48438 14.3906C5.15625 14.4375 4.875 14.6719 4.875 15.1875C4.875 15.5625 5.15625 15.8906 5.57812 15.8906C5.71875 15.8906 5.95312 15.8438 6.14062 15.7969C9.51562 15.0938 12.9375 15.1875 15.8438 16.9219C16.0312 17.0625 16.1719 17.1094 16.3594 17.1094ZM17.625 14.0156C18.1406 14.0156 18.5156 13.6406 18.5156 13.125C18.5156 12.7031 18.375 12.4219 18 12.1875C15.6562 10.8281 12.75 10.0781 9.70312 10.0781C7.73438 10.0781 6.42188 10.3125 5.10938 10.6875C4.64062 10.8281 4.35938 11.1562 4.35938 11.6719C4.35938 12.1875 4.78125 12.5625 5.29688 12.5625C5.48438 12.5625 5.625 12.5156 5.85938 12.4688C9.75 11.3906 14.1094 12.0938 17.0156 13.8281C17.2031 13.9219 17.3438 14.0156 17.625 14.0156ZM19.0781 10.4531C19.6406 10.4531 20.1562 9.98438 20.1562 9.375C20.1562 8.8125 19.9219 8.53125 19.5469 8.29688C16.9219 6.79688 13.3594 6.04688 9.9375 6.04688C7.92188 6.04688 6.04688 6.28125 4.40625 6.79688C3.98438 6.89062 3.60938 7.26562 3.60938 7.92188C3.60938 8.53125 4.07812 9 4.6875 9C4.92188 9 5.10938 8.95312 5.29688 8.90625C9.14062 7.82812 15.1406 8.29688 18.4688 10.2656C18.6562 10.4062 18.7969 10.4531 19.0781 10.4531Z" fill="white"/>
</svg>
