<svg width="22" height="25" viewBox="0 0 22 25" fill="none" xmlns="http://www.w3.org/2000/svg">
<path d="M21.1406 9.84375C19.0781 9.84375 17.0625 9.1875 15.375 8.01562V16.3594C15.375 17.9531 14.9062 19.4531 14.0156 20.7188C13.125 21.9844 11.8594 22.9688 10.4062 23.5312C8.95312 24.0469 7.35938 24.1406 5.85938 23.7656C4.35938 23.3906 3 22.5469 2.01562 21.375C0.984375 20.2031 0.328125 18.75 0.1875 17.2031C0 15.6562 0.28125 14.1094 1.03125 12.75C1.78125 11.3906 2.90625 10.2656 4.3125 9.5625C5.67188 8.85938 7.26562 8.625 8.76562 8.8125V13.0312C8.0625 12.8438 7.3125 12.8438 6.60938 13.0781C5.95312 13.3125 5.34375 13.7344 4.875 14.3438C4.45312 14.9531 4.21875 15.6562 4.26562 16.4062C4.26562 17.1562 4.5 17.8594 4.92188 18.4688C5.34375 19.0312 5.95312 19.5 6.65625 19.6875C7.35938 19.9219 8.15625 19.9219 8.8125 19.6875C9.51562 19.4531 10.125 19.0312 10.5938 18.4219C11.0156 17.8594 11.25 17.1094 11.25 16.3594V0H15.375C15.375 0.328125 15.375 0.703125 15.4688 1.03125C15.6094 1.82812 15.8906 2.53125 16.3125 3.1875C16.7812 3.84375 17.3438 4.40625 18 4.82812C18.9375 5.4375 20.0156 5.76562 21.1406 5.76562V9.84375Z" fill="white"/>
</svg>
