<svg width="26" height="18" viewBox="0 0 26 18" fill="none" xmlns="http://www.w3.org/2000/svg">
<path d="M25.0781 2.8125C25.5938 4.82812 25.5938 9 25.5938 9C25.5938 9 25.5938 13.2188 25.0781 15.2344C24.7969 16.3125 23.9062 17.1562 22.8281 17.4844C20.8125 18 12.7969 18 12.7969 18C12.7969 18 4.78125 18 2.8125 17.4844C1.6875 17.1562 0.84375 16.3125 0.515625 15.2344C0 13.2188 0 9 0 9C0 9 0 4.82812 0.515625 2.8125C0.84375 1.6875 1.6875 0.84375 2.8125 0.5625C4.78125 0 12.7969 0 12.7969 0C12.7969 0 20.8125 0 22.7812 0.5625C23.9062 0.84375 24.7969 1.6875 25.0781 2.8125ZM10.1719 12.8438L16.875 9L10.1719 5.20312V12.8438Z" fill="white"/>
</svg>
