<svg width="121" height="50" viewBox="0 0 121 50" fill="none" xmlns="http://www.w3.org/2000/svg">
<g clip-path="url(#clip0_142_613)">
<path d="M19.0148 20.9676C19.0148 20.9676 18.907 20.7486 18.7621 20.6411C18.6172 20.5335 17.4577 19.4462 17.2757 19.2682C17.0936 19.0863 15.6109 18.2885 15.0647 18.1104C14.5221 17.9286 13.7232 17.8582 13.7232 17.8582L13.1063 17.7876L12.7087 17.68L12.7458 17.3535C12.7458 17.3535 13.9424 15.9805 14.1579 15.7246C14.3771 15.4722 15.6815 13.8766 16.369 12.7226C17.0565 11.565 17.7439 9.53899 17.7439 9.53899C17.7439 9.53899 17.926 8.70782 17.9966 8.4184C18.0672 8.12897 17.4912 6.60763 17.4912 6.60763C17.4912 6.60763 16.9821 5.99168 16.2241 5.52044C15.4622 5.04919 14.5184 4.72267 14.1951 4.61506C13.8681 4.50745 12.4188 4.39984 12.0546 4.39984C11.6905 4.39984 10.2821 4.43695 9.22672 4.58166C8.17879 4.72637 6.76297 5.0863 6.76297 5.0863L5.85626 5.37572C5.85626 5.37572 5.42148 5.52044 4.65969 5.99168C3.8979 6.46293 3.79013 6.3516 3.39251 6.46293C2.99489 6.57053 2.01757 8.23658 2.30371 8.81543C2.59356 9.39428 2.88342 9.6837 2.88342 9.6837L3.02834 11.205V13.9175C3.02834 15.1457 3.0655 19.5613 3.0655 19.5613L2.4858 20.1735C2.4858 20.1735 1.43416 20.86 1.0737 21.2236C0.709523 21.5873 2.44864 23.3942 2.88713 23.7542C3.32191 24.1178 3.21414 24.912 3.21414 24.912L3.10638 26.7932C3.10638 26.7932 2.96145 28.0214 2.89084 29.6874C2.81653 31.3498 3.06921 31.5316 3.57832 32.3664C4.08741 33.1976 5.13535 33.5947 5.13535 33.5947L8.46865 34.0994L11.2966 32.6522L12.638 31.5316L13.8681 30.4444C13.8681 30.4444 15.8971 28.3442 16.696 27.2607C17.4949 26.1772 18.725 23.7876 18.9442 23.1012C19.1597 22.4147 19.0148 20.9676 19.0148 20.9676ZM7.13087 11.743L7.05655 9.82842C7.05655 9.82842 7.67341 9.32378 8.17879 9.10485C8.68418 8.88593 9.62806 8.4184 9.98852 8.34419C10.3527 8.27369 11.0736 7.98055 11.6199 7.98055H13.4295C13.4295 7.98055 13.5373 8.81172 12.7049 10.4036C11.8726 11.9954 10.7838 13.4054 10.7838 13.4054L9.29733 15.2162L7.59538 17.0974C7.59538 17.0974 7.34268 17.6021 7.34268 16.9898C7.34268 16.3776 7.30552 15.7616 7.30552 15.7616L7.12343 11.7467L7.13087 11.743ZM14.1579 21.91C14.0873 22.7784 13.2177 24.552 12.4931 25.4574C11.9878 26.3257 10.5348 27.8803 10.5348 27.8803C10.5348 27.8803 9.15983 29.257 8.43521 29.8692C7.71057 30.4852 7.23864 29.398 7.23864 29.398L7.20147 26.9379V22.886C7.20147 22.27 7.45417 22.3071 7.45417 22.3071C7.45417 22.3071 8.07103 21.9435 8.57642 21.7987C9.08179 21.654 9.73583 21.4017 10.1 21.3275C10.4642 21.257 11.7647 21.1086 12.1661 21.1086C12.5675 21.1086 14.1951 21.4722 14.1579 21.9063" fill="white"/>
<path d="M18.9555 21.0234L19.5761 20.7896C19.5761 20.7896 19.7693 20.7452 19.8548 20.3407C19.9403 19.9362 21.0736 14.1515 21.2223 13.747C21.2446 13.5985 21.5642 11.6765 21.6274 10.4408C21.6905 9.2015 21.8169 8.51876 21.8169 8.51876C21.8169 8.51876 21.7537 8.11431 22.6084 7.6208C23.0134 7.45011 28.0784 6.65976 28.6767 6.31838C29.275 5.97701 30.8766 5.29426 31.0066 5.20893C31.1367 5.12358 32.2256 4.71913 32.2256 4.71913C32.2256 4.71913 34.0204 4.14399 35.1761 4.50762C36.3317 4.87126 37.0564 5.554 37.0564 5.554C37.0564 5.554 37.547 5.89538 37.4429 6.36292C37.3352 6.83416 35.0944 7.85827 34.6632 8.02525C34.2359 8.19594 32.9762 8.79334 32.9762 8.79334C32.9762 8.79334 30.4752 10.1366 30.2412 10.3295C30.007 10.5225 28.2122 11.5911 27.2311 12.5484C26.2464 13.5095 25.9045 13.9362 25.9045 13.9362C25.9045 13.9362 25.7336 14.1477 25.6704 14.2553C25.6072 14.3629 25.3619 14.8453 24.8789 16.9455C24.8157 17.2237 24.6634 18.2071 24.6634 18.2071L24.4924 19.1867C24.4924 19.1867 24.3214 19.5058 24.7265 19.5058C25.1316 19.5058 33.6153 19.5281 34.0018 19.5466C34.3883 19.5688 34.6447 19.888 34.5815 20.3147C34.5184 20.7414 34.5073 20.9641 34.1096 21.361C33.8754 21.5948 33.6377 21.747 33.6377 21.747C33.6377 21.747 32.9539 22.3035 31.735 22.4928C30.5161 22.6857 27.4838 22.9195 27.4838 22.9195C27.4838 22.9195 25.3062 23.1978 24.6411 23.4538C23.9759 23.7098 23.8941 23.7321 23.8941 23.7321C23.8941 23.7321 23.5745 23.6691 23.5523 24.118C23.5299 24.567 23.4036 26.2924 23.5299 26.9788C23.66 27.6579 23.6786 28.0253 23.935 28.5559C23.935 28.5559 23.8904 29.1978 24.5333 28.8342C25.1725 28.4705 27.547 27.2349 28.7845 26.6597C30.0257 26.0846 31.7982 25.8509 32.5229 26.1699C33.2511 26.4891 33.8271 26.8082 33.8271 26.8082C33.8271 26.8082 34.3623 27.3648 33.8271 28.2368C33.292 29.1124 31.8168 29.6022 31.8168 29.6022C31.8168 29.6022 30.3638 30.1774 29.4868 30.8193C28.6099 31.4612 26.7295 32.3778 26.7295 32.3778C26.7295 32.3778 24.5928 33.5318 22.9056 32.7822C21.2186 32.0364 20.7057 31.3129 20.3193 30.6079C19.9329 29.9028 19.316 28.3444 19.2082 25.8286C19.1042 23.3091 19.1636 22.8602 19.1636 22.8602C19.1636 22.8602 19.145 22.734 18.8663 22.4743C18.5876 22.2182 18.6545 21.2794 18.6545 21.2794L18.9518 21.0234H18.9555Z" fill="white"/>
<path d="M37.8708 12.385C37.8708 12.385 38.5807 10.2217 39.7104 8.99349C39.7104 8.99349 40.4906 7.93598 42.2447 7.17531C42.2447 7.17531 42.7464 6.99349 43.5453 6.88218C43.7869 6.84507 45.8864 7.7319 46.3212 8.16604C46.7559 8.59646 47.265 8.90072 47.1016 10.244C47.016 10.9712 46.5813 11.1604 46.5813 11.1604C46.5813 11.1604 44.4631 10.589 44.3257 10.5705C44.1881 10.5519 43.876 10.448 43.4933 11.038C43.1106 11.628 41.4308 14.1586 40.7508 16.4073C40.264 18.0176 39.584 21.3497 39.7958 23.2496C39.833 23.5612 39.937 25.1048 40.0411 25.6577C40.1451 26.2105 40.2157 26.9935 40.6802 27.7541C41.1484 28.5186 41.9474 29.7653 42.6237 29.2606C43.3 28.756 43.6828 28.7041 44.4111 27.91C45.1394 27.1123 46.5813 25.9509 46.5813 25.9509L47.5178 25.257L47.7593 25.1345C47.7593 25.1345 48.0566 24.9267 48.1234 25.4128C48.1234 25.4128 48.4059 25.7987 48.3278 26.4258C48.2498 27.0528 48.1717 28.3813 47.8559 29.2421C47.5437 30.1029 46.7633 31.4016 45.9905 31.9879C45.2175 32.5779 44.9313 32.7412 44.9313 32.7412C44.9313 32.7412 44.6861 32.9638 43.3074 33.1456C41.9251 33.3312 39.8106 31.6428 39.8106 31.6428C39.8106 31.6428 37.3692 30.0808 36.5182 27.7467C35.6635 25.4128 35.3997 24.4666 35.7861 20.8042C36.1132 17.7171 36.9047 15.4053 36.9047 15.4053C36.9047 15.4053 37.5327 12.8711 37.8708 12.3813" fill="white"/>
<path d="M66.5957 36.8707C66.5957 36.8707 66.1647 35.8911 66.0903 35.6389C66.016 35.3828 64.8269 31.8652 64.5295 30.4106C64.2323 28.956 63.4742 25.3605 63.3404 24.3216C63.2067 23.2826 62.6418 20.5665 62.5675 20.0915C62.4931 19.6166 61.423 13.3791 61.3932 13.2158C61.3635 13.0526 60.0109 6.16572 59.9365 5.73158C59.8622 5.30116 59.3122 2.55533 59.2825 2.48112C59.2527 2.40691 59.0893 1.69447 58.2569 1.21952C57.4244 0.744566 54.9718 0.269613 54.7489 0.596144C54.526 0.922675 54.2584 1.70932 54.2584 1.70932C54.2584 1.70932 53.6787 3.80208 53.4557 4.45515C53.2328 5.1082 51.8653 10.3364 51.5791 11.3605C51.2967 12.3846 50.8359 14.8781 50.3751 16.9301C49.9144 18.9783 49.2305 22.392 49.186 22.5591C49.1414 22.7223 48.1418 26.3623 48.1418 26.3623L47.5063 29.3048C47.5063 29.3048 49.7025 31.4384 50.7393 31.0933C51.7798 30.7483 51.8392 30.3995 52.0697 29.765C52.3 29.1305 52.367 28.2288 52.367 28.2288V27.8578L58.8069 25.9134L59.1785 25.8095C59.1785 25.8095 59.5055 25.6908 59.5798 26.1509C59.6541 26.611 60.9919 33.0859 61.096 33.4867C61.2 33.8875 61.5716 35.8911 62.404 37.1528C63.2363 38.4143 64.3066 39.008 65.1242 39.1565C65.9416 39.3048 65.7039 39.1861 65.7039 39.1861C65.7039 39.1861 65.7633 39.2158 66.0457 38.919C66.3282 38.6221 66.789 37.9505 66.789 37.9505C66.789 37.9505 67.0416 37.6833 66.5957 36.867M58.4612 22.3067C58.4612 22.3067 54.2658 23.0563 53.7753 23.1565C53.2848 23.2604 53.4372 22.9523 53.4372 22.9523L53.5672 22.125L53.7232 21.1935L53.9797 19.6426C53.9797 19.6426 54.3142 17.7279 54.6263 16.1027C54.9348 14.4736 55.2469 13.6203 55.2469 13.6203C55.2469 13.6203 56.0495 10.8262 56.2836 10.0507C56.5178 9.27518 56.6478 9.97277 56.6478 9.97277L56.7259 10.4106L57.4244 14.7557C57.4244 14.7557 58.5914 21.1935 58.6656 21.7872C58.7437 22.3809 58.4575 22.3067 58.4575 22.3067" fill="white"/>
<path d="M63.9019 9.89134C63.9019 9.89134 63.6418 9.32362 64.3404 8.98596C65.0391 8.6483 65.5295 8.85609 66.0758 9.0379C66.6184 9.21972 67.395 9.5277 67.395 9.5277C67.395 9.5277 67.6811 9.57964 67.8111 10.0694C67.9412 10.5629 68.1196 11.5165 68.1196 11.5165C68.1196 11.5165 68.3537 13.0676 68.376 13.717C68.4058 14.3626 68.5841 16.871 68.5841 16.9488C68.5841 17.0267 68.6102 19.6613 69.2307 21.9915C69.8513 24.318 70.5277 25.2754 70.5277 25.2754C70.5277 25.2754 71.3823 26.5407 71.6945 25.8432C72.0066 25.1455 72.3671 24.9897 73.8163 21.4461C75.2656 17.9025 75.6038 14.6186 75.6038 14.6186C75.6038 14.6186 75.8899 11.8505 75.6297 9.98781C75.3696 8.1251 75.3213 8.05089 75.3213 8.05089C75.3213 8.05089 75.2173 7.86907 75.5555 7.66127C75.7895 7.37557 78.4576 7.89505 78.9482 8.48874C79.4424 9.08243 79.7768 10.5815 79.6209 12.5741C79.4648 14.5666 79.5688 14.8004 78.9482 17.7986C78.3239 20.8004 77.8074 23.023 76.3842 26.4887C74.9608 29.9545 73.69 30.0842 72.9133 30.4183C72.1366 30.7559 70.4794 30.0842 70.4794 30.0842C70.4794 30.0842 68.9 29.3608 67.1386 26.8524C65.3772 24.344 64.9127 20.5444 64.9127 20.5444C64.9127 20.5444 64.4444 17.4905 64.3664 15.5277C64.2884 13.5611 64.1323 11.2346 64.1323 11.2346L63.9019 9.89134Z" fill="white"/>
<path d="M79.7725 8.57424C79.7725 8.57424 79.0738 9.34976 79.1258 11.4462C79.1778 13.5427 79.0999 14.5223 79.8764 15.5835C80.6531 16.6448 81.3777 17.6503 83.3732 19.0492C85.3651 20.4444 86.9481 21.4722 88.0592 21.7913C88.2375 21.8433 88.9399 22.3108 88.3677 23.1086C87.7991 23.9101 87.0448 24.6336 86.1641 25.1494C85.2833 25.6651 82.5892 26.1327 82.0987 26.5446C81.6082 26.9564 81.4261 27.0863 81.192 27.5278C80.9578 27.9658 80.9095 28.0436 81.244 28.3813C81.5821 28.7152 82.8753 29.7506 82.8753 29.7506C82.8753 29.7506 83.1614 30.1401 84.1686 29.8544C85.1793 29.5724 86.3722 29.3126 88.8581 27.8396C91.3442 26.3627 91.9908 25.4871 91.9908 25.4871C91.9908 25.4871 93.2803 24.7115 93.2357 22.9787C93.2097 21.9954 92.355 21.1679 92.355 21.1679C92.355 21.1679 91.4483 20.0288 89.999 19.3869C88.5497 18.7412 86.4501 17.7023 85.9336 17.3942C85.4135 17.0826 83.9642 16.0734 83.2395 14.86C82.5149 13.6429 82.4368 11.6021 83.2395 10.7746C84.0422 9.94716 84.4732 9.4351 85.4134 9.09373C85.9819 8.88594 86.2681 9.66145 86.6582 10.0511C86.6582 10.0511 87.6171 11.1383 88.6761 11.1123C89.7389 11.0863 89.6572 10.4666 89.6572 10.4666C89.6572 10.4666 89.9433 9.53529 89.7352 8.75978C89.5271 7.98426 87.3792 5.83955 86.8589 5.7876C86.3424 5.73566 84.9414 5.63175 83.3138 6.14753C81.6825 6.66702 80.4636 7.77647 79.765 8.57796" fill="white"/>
<path d="M92.3846 22.5111C92.3846 22.5111 95.0155 10.025 95.5693 9.34967C96.2047 8.57416 97.914 8.57417 102.663 7.85061C107.278 7.14559 113.67 6.4814 113.67 6.4814C113.67 6.4814 118.36 6.50738 118.876 6.78938C119.393 7.0751 120.285 7.73929 120.664 8.83391C120.92 9.58344 120.612 9.84318 120.612 9.84318C120.612 9.84318 120.177 10.6632 119.111 10.7226C118.152 10.7745 116.521 10.6447 116.521 10.6447C116.521 10.6447 114.087 10.4369 112.689 10.6187C111.292 10.7968 104.339 11.3126 98.2113 13.6688C97.8732 13.7987 97.8249 13.7208 97.6948 14.0843C97.4607 14.6261 96.762 18.2476 96.8661 19.0751L96.8401 19.3089C96.8401 19.3089 96.71 19.5686 97.2043 19.5686C97.6985 19.5686 102.515 19.3349 102.515 19.3349L103.161 19.2829C103.161 19.2829 105.465 19.0231 105.956 19.179C106.446 19.3349 106.524 19.3571 106.836 19.7208C107.148 20.0843 108.051 20.9601 107.895 21.5315C107.739 22.0992 106.55 22.6187 106.55 22.6187C106.55 22.6187 105.695 22.9304 104.012 22.9304C102.329 22.9304 100.129 23.0083 99.092 23.2161C98.0553 23.4239 96.8104 23.6058 96.8104 24.2513C96.8104 24.897 96.9405 26.9415 97.353 27.769C97.7692 28.5964 98.6238 29.5018 99.813 29.038C101.006 28.5704 101.188 28.4405 102.143 27.5389C103.102 26.6336 103.797 25.5946 104.395 25.858C104.859 26.0659 106.312 27.8988 106.104 28.4703C105.896 29.038 105.406 29.9953 103.878 31.2124C102.351 32.4258 100.381 32.9935 100.381 32.9935C100.381 32.9935 99.6049 33.5352 97.6094 32.7337C95.6139 31.9323 94.4507 30.3292 94.4507 30.3292C94.4507 30.3292 92.7933 29.038 92.3809 22.5222" fill="white"/>
<path d="M100.751 35.2384C101.364 35.32 102.4 35.9285 102.594 36.2365C102.783 36.5444 102.925 36.8747 102.709 37.3497C102.374 38.088 100.286 36.6187 100.286 36.6187C100.286 36.6187 98.558 34.9526 100.751 35.242V35.2384Z" fill="white"/>
<path d="M70.4785 45.2124C70.4785 45.2124 70.6345 44.2922 70.6345 43.5612C70.6345 42.8302 70.8278 41.1048 70.8278 41.1048C70.8278 41.1048 70.4822 36.6187 71.4038 36.3887C72.3253 36.1586 72.708 36.3887 72.708 36.3887C72.708 36.3887 74.2465 41.5649 74.3989 41.8358C74.5513 42.103 74.6293 42.6781 74.8597 42.025C75.0901 41.372 75.6289 40.1846 75.6289 40.1846C75.6289 40.1846 76.3201 38.0362 76.5505 37.3089C76.7808 36.578 76.8961 36.0436 76.8961 36.0436C76.8961 36.0436 77.0113 35.5464 78.2005 35.3163C79.3932 35.0862 79.7389 36.0065 79.7389 36.0065L80.1216 37.6169L80.352 38.6521L80.8128 41.873C80.8128 41.873 81.0432 43.5612 81.1584 44.0584C81.2737 44.5557 81.5412 46.2848 81.5412 46.2848C81.5412 46.2848 81.7753 47.5389 80.5044 47.654C80.352 47.6688 78.9288 46.7449 78.7355 45.3274C78.5423 43.9063 78.1967 42.0287 78.1967 42.0287L78.0815 41.4907L77.316 43.179C77.316 43.179 77.1228 43.7171 76.8924 44.4444C76.662 45.1717 75.3911 46.9378 75.3911 46.9378C75.3911 46.9378 74.5476 46.7449 74.1239 46.3256C73.7003 45.9026 73.3547 45.6725 73.3547 45.6725C73.3547 45.6725 73.1242 45.6355 73.1242 46.1326C73.1242 46.6299 73.2023 47.3609 73.1614 47.821C73.1242 48.2811 73.2766 48.7412 72.5075 48.9305C71.7382 49.1234 71.0099 48.5111 70.9319 48.3553C70.8575 48.2032 70.2778 47.5872 70.393 46.1698C70.5081 44.7523 70.4673 45.2124 70.4673 45.2124" fill="white"/>
<path d="M83.0397 37.6539C83.0397 37.6539 84.2697 37.6169 84.4592 38.73C84.6524 39.8432 84.4963 40.4555 84.4963 40.4555L84.4592 42.0658C84.4592 42.0658 84.6524 43.8283 85.0724 44.5964C85.496 45.3645 85.8639 45.8358 86.5997 45.3311C87.4284 44.7634 87.4952 41.4907 87.5324 40.0324C87.5695 38.5741 87.5324 37.8061 87.5324 37.8061C87.5324 37.8061 87.3392 37.576 87.9189 37.3088C88.4949 37.0416 89.2641 37.2718 89.762 37.691C90.26 38.114 90.1076 41.1419 89.6468 43.0973C89.186 45.0528 88.9557 46.0138 87.9189 47.3163C86.8821 48.6224 85.0017 48.1994 84.5781 47.7764C84.1545 47.3534 83.2329 46.7003 82.4265 44.782C81.6201 42.8636 81.9285 38.4146 81.9285 38.4146C81.9285 38.4146 81.7762 37.6094 83.0434 37.6465" fill="white"/>
<path d="M92.066 37.921C92.066 37.921 93.5227 36.4738 95.5628 36.3885C96.4434 36.3514 97.5992 37.4238 97.5992 37.4238C97.5992 37.4238 98.2123 37.6909 97.6772 38.4591C97.1384 39.2234 96.6776 38.7633 96.6776 38.7633C96.6776 38.7633 95.8824 38.2698 95.0239 38.6483C92.5527 39.7392 92.9132 41.5611 93.5635 42.2549C94.2176 42.9451 95.3695 42.9822 95.3695 42.9822L97.8667 43.4423L99.0596 43.8283C99.0596 43.8283 100.212 44.2884 100.713 44.8264C101.211 45.3644 100.75 46.2068 99.9068 46.4776C99.0596 46.7448 96.4509 47.1789 95.8749 47.3719C95.299 47.5648 94.2213 47.6687 94.2213 47.6687C94.2213 47.6687 92.9912 47.858 92.6457 47.4758C92.3 47.0935 91.5308 46.3663 92.222 46.0175C92.9132 45.6724 96.633 45.5239 96.633 45.5239C96.633 45.5239 97.5805 45.1937 96.633 44.8152C96.1016 44.6037 93.2365 44.1436 91.7203 43.1826C88.0935 40.8821 92.066 37.9284 92.066 37.9284" fill="white"/>
<path d="M101.054 38.5742C101.054 38.5742 101.746 38.6113 102.169 39.0343C102.593 39.4536 102.478 39.3794 102.63 39.9953C102.786 40.6076 103.206 43.9842 103.667 45.1716C104.128 46.3627 104.774 47.6206 104.399 47.9731C103.321 48.9787 102.091 47.706 102.091 47.706C102.091 47.706 100.096 40.8414 100.018 39.7653C99.9395 38.6929 101.054 38.5779 101.054 38.5779" fill="white"/>
<path d="M107.584 37.001C107.584 37.001 105.075 37.2793 104.013 41.1457C103.771 42.0251 103.745 43.027 104.165 44.5595C104.589 46.0919 106.766 50.8304 112.08 47.9732C113.994 46.9417 115.558 44.385 116.19 43.027C116.565 42.2181 115.421 42.1068 115.421 42.1068C115.421 42.1068 114.923 41.7617 114.269 42.6039C113.614 43.4462 112.656 44.6374 111.389 45.4055C110.122 46.1735 109.661 46.6336 108.126 46.2886C106.588 45.9435 105.934 42.6076 106.588 41.3016C107.242 39.9992 107.766 38.886 109.044 38.886C110.322 38.886 111.148 39.3684 111.233 38.3108C111.27 37.8804 110.27 36.8934 107.625 36.9305" fill="white"/>
</g>
<defs>
<clipPath id="clip0_142_613">
<rect width="121" height="50" fill="white"/>
</clipPath>
</defs>
</svg>
